<svg width="142" height="41" viewBox="0 0 142 41" fill="none" xmlns="http://www.w3.org/2000/svg">
<path d="M20.5391 24.5859L10.9766 27.3116V23.5784L20.5391 20.8528V24.5859Z" fill="#559097"/>
<path d="M8.32031 37.3359C9.78732 37.3359 10.9766 36.1467 10.9766 34.6797C10.9766 33.2127 9.78732 32.0234 8.32031 32.0234C6.85331 32.0234 5.66406 33.2127 5.66406 34.6797C5.66406 36.1467 6.85331 37.3359 8.32031 37.3359Z" fill="#559097"/>
<path d="M17.8828 34.6103C19.3498 34.6103 20.5391 33.421 20.5391 31.954C20.5391 30.487 19.3498 29.2978 17.8828 29.2978C16.4158 29.2978 15.2266 30.487 15.2266 31.954C15.2266 33.421 16.4158 34.6103 17.8828 34.6103Z" fill="#559097"/>
<path d="M31.4026 10.3953L38.3359 8.39722V4.66406L31.4026 6.66216V10.3953Z" fill="#EA9ED7"/>
<path d="M28.7463 20.4197C30.2133 20.4197 31.4026 19.2304 31.4026 17.7634C31.4026 16.2964 30.2133 15.1072 28.7463 15.1072C27.2793 15.1072 26.0901 16.2964 26.0901 17.7634C26.0901 19.2304 27.2793 20.4197 28.7463 20.4197Z" fill="#EA9ED7"/>
<path d="M31.0805 32.19L27.9034 33.8603L28.5101 30.3226L25.9398 27.8171L29.4919 27.301L31.0805 24.0822L32.669 27.301L36.2211 27.8171L33.6508 30.3226L34.2576 33.8603L31.0805 32.19Z" fill="#73C8D2"/>
<path d="M9.99162 11.3261L7.38106 12.6985L7.87964 9.79162L5.76765 7.73296L8.68634 7.30882L9.99162 4.66406L11.2969 7.30882L14.2156 7.73296L12.1036 9.79162L12.6022 12.6985L9.99162 11.3261Z" fill="#F49419"/>
<path d="M20.5391 20.1887C20.4759 20.1887 20.415 20.1981 20.3572 20.2145L20.357 20.2141L18.4497 20.7577C18.097 20.8583 17.8926 21.2257 17.9931 21.5784C18.0763 21.8703 18.3423 22.0606 18.6314 22.0606C18.6916 22.0606 18.7529 22.0523 18.8138 22.035L19.875 21.7326V24.0847L11.6406 26.4318V24.0797L13.066 23.6734C13.4187 23.5729 13.6231 23.2055 13.5226 22.8528C13.422 22.5001 13.0547 22.2958 12.7019 22.3962L10.7945 22.9399L10.7946 22.9403C10.5164 23.0195 10.3125 23.2749 10.3125 23.5785V32.0253C9.75714 31.6074 9.06725 31.3594 8.32031 31.3594C6.48949 31.3594 5 32.8489 5 34.6797C5 36.5105 6.48949 38 8.32031 38C10.1511 38 11.6406 36.5105 11.6406 34.6797V27.8129L19.875 25.4657V29.2996C19.3196 28.8817 18.6298 28.6337 17.8828 28.6337C16.052 28.6337 14.5625 30.1232 14.5625 31.954C14.5625 33.7849 16.052 35.2743 17.8828 35.2743C19.7136 35.2743 21.2031 33.7849 21.2031 31.954V20.8528C21.2031 20.486 20.9058 20.1887 20.5391 20.1887V20.1887ZM8.32031 36.6719C7.22182 36.6719 6.32812 35.7782 6.32812 34.6797C6.32812 33.5812 7.22182 32.6875 8.32031 32.6875C9.4188 32.6875 10.3125 33.5812 10.3125 34.6797C10.3125 35.7782 9.4188 36.6719 8.32031 36.6719ZM17.8828 33.9462C16.7843 33.9462 15.8906 33.0525 15.8906 31.954C15.8906 30.8555 16.7843 29.9618 17.8828 29.9618C18.9813 29.9618 19.875 30.8555 19.875 31.954C19.875 33.0525 18.9813 33.9462 17.8828 33.9462Z" fill="white"/>
<path d="M38.7352 4.13348C38.5685 4.00804 38.3525 3.96833 38.1521 4.02597L31.2187 6.02406C30.9344 6.10601 30.7385 6.36619 30.7385 6.66216V15.109C30.1832 14.6911 29.4933 14.4431 28.7463 14.4431C26.9155 14.4431 25.426 15.9326 25.426 17.7634C25.426 19.5942 26.9155 21.0837 28.7463 21.0837C30.5772 21.0837 32.0667 19.5942 32.0667 17.7634V10.895L38.5198 9.03532C38.8042 8.95338 39 8.6932 39 8.39722V4.66406C39 4.45542 38.9019 4.25892 38.7352 4.13348V4.13348ZM28.7463 19.7556C27.6478 19.7556 26.7542 18.8619 26.7542 17.7634C26.7542 16.6649 27.6478 15.7712 28.7463 15.7712C29.8448 15.7712 30.7385 16.6649 30.7385 17.7634C30.7385 18.8619 29.8448 19.7556 28.7463 19.7556ZM37.6719 7.89752L32.0667 9.51285V7.16187L37.6719 5.54654V7.89752Z" fill="white"/>
<path d="M36.3166 27.16L33.11 26.694L31.6759 23.7883C31.564 23.5617 31.3332 23.4182 31.0805 23.4182C30.8277 23.4182 30.5968 23.5617 30.485 23.7883L29.051 26.694L25.8443 27.16C25.5942 27.1963 25.3864 27.3715 25.3082 27.6119C25.2301 27.8523 25.2953 28.1162 25.4763 28.2927L27.7966 30.5545L27.2488 33.7481C27.2061 33.9972 27.3085 34.249 27.513 34.3977C27.7175 34.5461 27.9886 34.5658 28.2123 34.4482L31.0804 32.9403L33.9485 34.4481C34.0456 34.4993 34.1518 34.5244 34.2574 34.5244C34.3951 34.5244 34.5321 34.4817 34.6478 34.3976C34.8523 34.249 34.9547 33.9972 34.912 33.7481L34.3642 30.5544L36.6845 28.2926C36.8655 28.1162 36.9307 27.8523 36.8526 27.6119C36.7745 27.3715 36.5668 27.1963 36.3166 27.16V27.16ZM33.1873 29.847C33.0308 29.9996 32.9593 30.2194 32.9963 30.4348L33.3756 32.6464L31.3895 31.6022C31.196 31.5005 30.9649 31.5005 30.7714 31.6022L28.7853 32.6464L29.1646 30.4348C29.2016 30.2194 29.1301 29.9996 28.9736 29.847L27.3668 28.2808L29.5874 27.9581C29.8037 27.9267 29.9907 27.7908 30.0874 27.5949L31.0805 25.5827L32.0735 27.5949C32.1703 27.7908 32.3572 27.9267 32.5735 27.9581L34.794 28.2808L33.1873 29.847Z" fill="white"/>
<path d="M7.16547 10.0234L6.72586 12.5863C6.6831 12.8354 6.7855 13.0872 6.99003 13.2358C7.19449 13.3843 7.4657 13.404 7.68935 13.2863L9.99086 12.0763L12.2924 13.2863C12.3896 13.3374 12.4957 13.3626 12.6014 13.3626C12.739 13.3626 12.8761 13.3198 12.9918 13.2357C13.1963 13.0871 13.2987 12.8354 13.2559 12.5862L12.8163 10.0234L14.6783 8.20843C14.8594 8.03199 14.9245 7.76809 14.8464 7.5277C14.7683 7.28731 14.5605 7.11213 14.3103 7.07574L11.7371 6.7018L10.5864 4.37015C10.4746 4.1435 10.2437 4 9.99093 4C9.73812 4 9.50729 4.1435 9.39546 4.37015L8.24471 6.70187L5.67147 7.0758C5.42131 7.11213 5.21353 7.28738 5.13537 7.52777C5.05721 7.76816 5.12242 8.03205 5.30344 8.2085L7.16547 10.0234ZM8.78114 7.96598C8.99742 7.93457 9.18442 7.7987 9.28111 7.60274L9.99086 6.16458L10.7006 7.60274C10.7974 7.7987 10.9843 7.93457 11.2006 7.96598L12.7877 8.19661L11.6394 9.31609C11.4829 9.46869 11.4114 9.68849 11.4484 9.90391L11.7195 11.4846L10.3 10.7384C10.2032 10.6875 10.0971 10.6621 9.99099 10.6621C9.88481 10.6621 9.77869 10.6875 9.682 10.7384L8.26244 11.4846L8.53357 9.90391C8.57056 9.68849 8.49911 9.46869 8.34259 9.31609L7.19403 8.19661L8.78114 7.96598Z" fill="white"/>
<path d="M20.5391 9.73128C20.1723 9.73128 19.875 10.0286 19.875 10.3953V11.0594C19.875 11.4262 20.1723 11.7235 20.5391 11.7235C20.9058 11.7235 21.2031 11.4262 21.2031 11.0594V10.3953C21.2031 10.0286 20.9058 9.73128 20.5391 9.73128Z" fill="white"/>
<path d="M20.5391 14.3797C20.1723 14.3797 19.875 14.677 19.875 15.0438V15.7078C19.875 16.0746 20.1723 16.3719 20.5391 16.3719C20.9058 16.3719 21.2031 16.0746 21.2031 15.7078V15.0438C21.2031 14.677 20.9058 14.3797 20.5391 14.3797Z" fill="white"/>
<path d="M23.1953 12.3875H22.5312C22.1645 12.3875 21.8672 12.6848 21.8672 13.0516C21.8672 13.4183 22.1645 13.7156 22.5312 13.7156H23.1953C23.5621 13.7156 23.8594 13.4183 23.8594 13.0516C23.8594 12.6848 23.5621 12.3875 23.1953 12.3875V12.3875Z" fill="white"/>
<path d="M17.8828 13.7156H18.5469C18.9136 13.7156 19.2109 13.4183 19.2109 13.0516C19.2109 12.6848 18.9136 12.3875 18.5469 12.3875H17.8828C17.5161 12.3875 17.2188 12.6848 17.2188 13.0516C17.2188 13.4183 17.5161 13.7156 17.8828 13.7156Z" fill="white"/>
<path d="M15.7578 22.8799C15.9325 22.8799 16.1038 22.8089 16.2273 22.6854C16.3508 22.5619 16.4219 22.3905 16.4219 22.2159C16.4219 22.0406 16.3508 21.8699 16.2273 21.7457C16.1038 21.6222 15.9325 21.5518 15.7578 21.5518C15.5832 21.5518 15.4118 21.6222 15.2883 21.7457C15.1648 21.8699 15.0938 22.0406 15.0938 22.2159C15.0938 22.3905 15.1648 22.5619 15.2883 22.6854C15.4118 22.8089 15.5832 22.8799 15.7578 22.8799Z" fill="white"/>
<path d="M58.024 32.496C58.284 32.496 58.5007 32.4093 58.674 32.236C58.8473 32.08 58.934 31.872 58.934 31.612C58.934 31.2307 58.7347 30.91 58.336 30.65C57.9373 30.39 57.4953 30.1993 57.01 30.078C54.9993 29.4887 52.928 29.0207 50.796 28.674C53.0667 23.5607 55.086 18.352 56.854 13.048C57.3393 11.748 57.66 10.344 57.816 8.836C57.816 8.12533 57.5473 7.57933 57.01 7.198C56.4727 6.79933 55.8487 6.6 55.138 6.6C54.9127 6.6 54.6787 6.61733 54.436 6.652H54.358C53.0927 6.86 51.8273 6.99 50.562 7.042C50.0073 7.042 49.47 7.16333 48.95 7.406C48.4473 7.64867 48.196 8.01267 48.196 8.498C48.196 8.79267 48.2913 9.044 48.482 9.252C48.69 9.44267 48.95 9.538 49.262 9.538C49.4527 9.538 49.6433 9.50333 49.834 9.434C50.0247 9.34733 50.224 9.29533 50.432 9.278L51.394 9.174C52.4167 9.122 53.2053 9.02667 53.76 8.888C54.1933 8.80133 54.6267 8.74067 55.06 8.706C55.268 8.706 55.372 8.758 55.372 8.862V8.888C55.2333 9.54667 54.6353 11.0807 53.578 13.49C53.0233 14.738 52.408 16.246 51.732 18.014C50.3107 21.8447 48.8027 25.6407 47.208 29.402C47.0693 29.6967 47 29.9913 47 30.286C47 30.7367 47.1733 31.118 47.52 31.43C47.8667 31.742 48.274 31.898 48.742 31.898C49.0713 31.898 49.4093 31.8547 49.756 31.768C50.1027 31.6987 50.4753 31.664 50.874 31.664C52.07 31.6987 53.3267 31.82 54.644 32.028L55.528 32.132C56.204 32.184 56.88 32.288 57.556 32.444C57.7293 32.4787 57.8853 32.496 58.024 32.496ZM64.7316 28.232C65.0609 28.232 65.3903 28.102 65.7196 27.842C66.6209 27.0273 67.3576 26.0653 67.9296 24.956C67.9643 24.8867 67.9816 24.8173 67.9816 24.748C67.9816 24.6093 67.9296 24.5053 67.8256 24.436C67.7216 24.3667 67.6263 24.332 67.5396 24.332C67.4356 24.332 67.3403 24.3667 67.2536 24.436C67.1669 24.5053 66.8983 24.8173 66.4476 25.372C65.5809 26.4987 65.0349 27.062 64.8096 27.062C64.6883 27.062 64.5929 26.8627 64.5236 26.464C64.4889 26.204 64.4109 24.956 64.2896 22.72C64.2549 21.9227 64.0209 21.524 63.5876 21.524C63.4316 21.524 63.2929 21.602 63.1716 21.758C63.0503 21.914 62.9463 22.0873 62.8596 22.278C62.5476 23.058 62.3656 23.5347 62.3136 23.708C62.0883 24.332 61.8369 24.9387 61.5596 25.528L61.5336 25.58C61.3949 25.892 61.1956 26.1607 60.9356 26.386C60.8663 26.282 60.8316 26.178 60.8316 26.074C60.8316 24.8607 60.8576 23.9073 60.9096 23.214L60.9876 21.524C60.9876 21.1947 60.9789 20.874 60.9616 20.562C60.8749 20.1633 60.6063 19.938 60.1556 19.886C59.8956 19.886 59.6876 20.0073 59.5316 20.25C59.3929 20.406 59.2976 20.588 59.2456 20.796C58.8643 21.992 58.6736 23.2227 58.6736 24.488L58.6996 24.982C58.6996 25.762 58.9249 26.49 59.3756 27.166C59.7049 27.582 60.0689 27.79 60.4676 27.79C60.8836 27.79 61.2736 27.5733 61.6376 27.14C61.8976 26.7413 62.1143 26.3167 62.2876 25.866C62.4783 25.4153 62.6689 24.9647 62.8596 24.514C62.9116 24.8607 62.9376 25.19 62.9376 25.502C62.9376 26.178 63.0936 26.8107 63.4056 27.4C63.7696 27.9547 64.2116 28.232 64.7316 28.232ZM70.2554 30.208C70.7754 30.208 71.278 29.9567 71.7634 29.454C72.5954 28.4833 73.2107 27.3913 73.6094 26.178C73.644 25.9527 73.774 25.788 73.9994 25.684C74.8834 25.2853 75.8194 25.034 76.8074 24.93C77.258 24.878 77.7087 24.7827 78.1594 24.644C78.3674 24.5747 78.4714 24.4533 78.4714 24.28C78.454 24.1067 78.402 24.0027 78.3154 23.968C78.246 23.916 78.1507 23.89 78.0294 23.89L77.6394 23.942C76.478 24.046 75.2387 24.3233 73.9214 24.774V24.046C73.9214 23.0753 73.6354 22.2 73.0634 21.42C72.63 20.9347 72.1534 20.692 71.6334 20.692C71.408 20.692 71.1914 20.7353 70.9834 20.822C70.4807 21.0473 70.082 21.394 69.7874 21.862C69.6314 22.1047 69.4927 22.3647 69.3714 22.642L69.1634 23.11C69.1634 22.5727 69.172 22.044 69.1894 21.524L69.3194 18.82C69.4234 16.844 69.6227 14.868 69.9174 12.892C70.0734 11.904 70.16 11.2107 70.1774 10.812C70.1774 10.292 69.952 9.928 69.5014 9.72C69.328 9.668 69.172 9.642 69.0334 9.642C68.652 9.642 68.314 9.824 68.0194 10.188C67.8114 10.448 67.664 10.7427 67.5774 11.072C67.0054 12.8227 66.6934 14.608 66.6414 16.428L66.5894 18.248C66.5894 20.2413 66.7194 22.226 66.9794 24.202C67.014 25.086 67.2307 25.9267 67.6294 26.724C67.8547 27.192 68.1667 27.426 68.5654 27.426C68.8254 27.3913 69.0074 27.296 69.1114 27.14C69.2327 26.9667 69.4234 26.464 69.6834 25.632L70.0474 24.488C70.2554 23.7947 70.5587 23.1447 70.9574 22.538C71.148 22.2433 71.33 22.096 71.5034 22.096C71.746 22.1133 71.876 22.3213 71.8934 22.72C71.9454 23.2053 71.9714 23.5693 71.9714 23.812C71.9714 24.332 71.9367 24.8433 71.8674 25.346C71.8327 25.4847 71.7287 25.5973 71.5554 25.684C70.0994 26.3947 69.198 27.2267 68.8514 28.18C68.7994 28.3533 68.7734 28.518 68.7734 28.674C68.7734 29.2807 69.0767 29.7573 69.6834 30.104C69.8567 30.1733 70.0474 30.208 70.2554 30.208ZM70.1254 28.908C70.368 28.2147 70.784 27.6513 71.3734 27.218C71.148 27.9287 70.732 28.492 70.1254 28.908ZM89.4233 31.508C89.5446 31.508 89.6573 31.4733 89.7613 31.404C89.9519 31.248 90.0473 31.066 90.0473 30.858L90.0213 30.624C89.9519 30.3813 89.9173 30.1473 89.9173 29.922C89.9866 28.0153 90.0386 26.802 90.0733 26.282C90.1253 25.5193 90.1513 24.7567 90.1513 23.994L90.1253 23.11C90.0733 21.6367 89.4753 20.9 88.3313 20.9L87.7853 20.926C87.2653 20.926 86.9619 20.614 86.8753 19.99C86.8233 19.8167 86.7886 19.6433 86.7713 19.47L86.7193 19.184C86.6326 18.7853 86.3986 18.5773 86.0173 18.56C85.6879 18.56 85.4626 18.716 85.3413 19.028C85.0813 19.5133 84.3793 21.004 83.2353 23.5C82.1779 25.8053 81.5279 27.1053 81.2853 27.4C81.2679 27.4173 81.2506 27.452 81.2333 27.504C81.2159 27.5387 81.1899 27.582 81.1553 27.634C81.1206 27.686 81.0773 27.712 81.0253 27.712C80.9906 27.6947 80.9473 27.686 80.8953 27.686C80.8433 27.6687 80.8086 27.5473 80.7913 27.322C80.7913 27.0793 80.7826 25.554 80.7653 22.746L80.7913 21.394C80.7913 20.7007 80.6439 20.146 80.3493 19.73C80.0199 19.3313 79.6473 19.132 79.2313 19.132C78.7806 19.132 78.3906 19.366 78.0613 19.834C77.8879 20.1287 77.7753 20.458 77.7233 20.822C77.5326 21.7927 77.4373 22.7633 77.4373 23.734C77.4373 24.1673 77.4546 24.6093 77.4893 25.06C77.5066 26.3773 77.9573 27.5473 78.8413 28.57C79.4133 29.1767 79.9766 29.48 80.5313 29.48C81.1726 29.48 81.7619 29.064 82.2993 28.232C82.6459 27.6773 82.9406 27.0793 83.1833 26.438C83.8939 24.7913 84.6479 23.1533 85.4453 21.524L85.4713 21.472C85.5059 21.368 85.5493 21.316 85.6013 21.316C85.6359 21.316 85.6793 21.342 85.7313 21.394C86.1299 21.8273 86.6933 22.044 87.4213 22.044H87.8373C88.0453 22.044 88.1666 22.096 88.2013 22.2C88.2533 22.2867 88.2793 23.5867 88.2793 26.1V27.01C88.2793 28.102 88.3313 29.1853 88.4353 30.26C88.4526 30.676 88.6173 31.0227 88.9293 31.3C89.0853 31.4387 89.2499 31.508 89.4233 31.508ZM79.9593 17.936C80.3406 17.936 80.6526 17.8147 80.8953 17.572C81.1379 17.312 81.2593 17 81.2593 16.636C81.2593 16.2547 81.1206 15.934 80.8433 15.674C80.5833 15.414 80.2713 15.284 79.9073 15.284C79.5433 15.284 79.2399 15.414 78.9973 15.674C78.7546 15.9167 78.6333 16.22 78.6333 16.584C78.6333 16.9653 78.7546 17.286 78.9973 17.546C79.2573 17.806 79.5779 17.936 79.9593 17.936ZM102.355 34.134C103.343 34.0473 104.218 33.6833 104.981 33.042C106.749 31.69 108.049 29.9827 108.881 27.92C109.851 25.6493 110.337 23.4653 110.337 21.368C110.337 20.5013 110.241 19.6693 110.051 18.872C109.877 18.0747 109.548 17.3553 109.063 16.714C108.595 16.0553 107.919 15.518 107.035 15.102C106.012 14.686 104.929 14.478 103.785 14.478H102.641C101.895 14.478 101.523 14.348 101.523 14.088C101.523 14.0013 101.549 13.8887 101.601 13.75C101.947 12.866 102.433 12.034 103.057 11.254C103.698 10.4567 104.461 9.85 105.345 9.434C105.466 9.382 105.587 9.356 105.709 9.356C105.882 9.356 106.021 9.45133 106.125 9.642C106.246 10.0753 106.454 10.292 106.749 10.292C107.147 10.2573 107.347 10.0407 107.347 9.642L107.321 9.356L107.347 9.07C107.347 8.58466 107.139 8.17733 106.723 7.848C106.324 7.51867 105.873 7.354 105.371 7.354C104.885 7.354 104.452 7.44933 104.071 7.64C101.679 8.66267 100.041 10.5087 99.1566 13.178C99.0353 13.5073 98.9746 13.8367 98.9746 14.166C98.9746 14.8073 99.1913 15.362 99.6246 15.83C100.058 16.298 100.639 16.6013 101.367 16.74C101.887 16.8093 102.407 16.844 102.927 16.844C103.343 16.844 103.75 16.8613 104.149 16.896C104.929 16.9653 105.587 17.2253 106.125 17.676C106.679 18.1093 107.017 18.7073 107.139 19.47C107.139 19.6087 107.061 19.7213 106.905 19.808C106.385 20.1547 105.908 20.5533 105.475 21.004C103.516 23.032 101.887 25.2853 100.587 27.764C99.9106 28.9947 99.5726 30.13 99.5726 31.17C99.5726 31.95 99.7893 32.6347 100.223 33.224C100.673 33.8307 101.332 34.134 102.199 34.134H102.355ZM102.173 31.352C102.086 31.352 102.025 31.3 101.991 31.196C101.973 31.092 101.965 30.9273 101.965 30.702C101.965 30.3033 102.051 29.9307 102.225 29.584C103.386 26.7587 104.972 24.202 106.983 21.914C107.035 21.8793 107.069 21.8533 107.087 21.836C107.104 21.8013 107.147 21.784 107.217 21.784C107.043 23.3787 106.723 24.904 106.255 26.36C105.787 27.816 104.963 29.1333 103.785 30.312C103.525 30.5547 103.23 30.7887 102.901 31.014C102.589 31.2393 102.346 31.352 102.173 31.352ZM118.467 30.754C119.334 30.754 120.053 30.3813 120.625 29.636C121.821 28.1627 122.653 26.49 123.121 24.618L123.147 24.358C123.147 24.2193 123.112 24.124 123.043 24.072C122.974 24.0027 122.861 23.9593 122.705 23.942C122.497 23.942 122.35 24.0547 122.263 24.28C122.176 24.488 122.098 24.6873 122.029 24.878C121.804 25.4673 121.561 26.022 121.301 26.542C121.041 27.062 120.686 27.6253 120.235 28.232C120.027 28.5093 119.802 28.778 119.559 29.038C119.334 29.2807 119.108 29.402 118.883 29.402C118.675 29.402 118.528 29.2893 118.441 29.064C118.268 28.6133 118.181 27.79 118.181 26.594C118.181 25.294 118.268 23.994 118.441 22.694C118.458 22.382 118.484 22.07 118.519 21.758C118.571 21.446 118.597 21.1427 118.597 20.848C118.597 20.4493 118.502 20.094 118.311 19.782C118.138 19.4527 117.878 19.288 117.531 19.288C117.046 19.288 116.699 19.5567 116.491 20.094L115.971 21.472C115.312 20.8133 114.68 20.484 114.073 20.484C113.484 20.484 112.929 20.796 112.409 21.42C111.906 22.0267 111.499 22.772 111.187 23.656C110.858 24.54 110.693 25.3893 110.693 26.204C110.693 26.7413 110.754 27.2873 110.875 27.842C110.996 28.3793 111.196 28.7867 111.473 29.064C111.768 29.324 112.106 29.454 112.487 29.454C112.972 29.454 113.484 29.2113 114.021 28.726C114.524 28.206 114.931 27.6253 115.243 26.984C115.26 26.9493 115.269 26.9147 115.269 26.88C115.286 26.8453 115.304 26.8107 115.321 26.776C115.356 26.724 115.399 26.698 115.451 26.698C115.59 26.7153 115.659 26.8107 115.659 26.984C115.711 28.0067 115.971 28.8907 116.439 29.636C116.924 30.3813 117.6 30.754 118.467 30.754ZM112.877 27.868C112.756 27.8507 112.695 27.7727 112.695 27.634C112.834 26.0913 113.302 24.592 114.099 23.136C114.116 23.1187 114.125 23.1013 114.125 23.084C114.142 23.0493 114.16 23.0233 114.177 23.006C114.212 22.9713 114.246 22.954 114.281 22.954C114.368 22.9713 114.428 23.0493 114.463 23.188C114.584 23.448 114.654 23.6907 114.671 23.916C114.706 24.124 114.732 24.3927 114.749 24.722C114.749 24.9127 114.697 25.112 114.593 25.32C114.333 26.0307 113.874 26.7933 113.215 27.608C113.076 27.7813 112.964 27.868 112.877 27.868ZM124.598 28.336C125.448 28.232 126.228 27.8073 126.938 27.062C127.649 26.2993 128.004 25.5193 128.004 24.722C127.987 24.4273 127.814 24.254 127.484 24.202C127.328 24.202 127.198 24.2887 127.094 24.462C127.008 24.6353 126.93 24.826 126.86 25.034C126.583 25.8487 126.054 26.438 125.274 26.802C125.101 26.8713 124.971 26.906 124.884 26.906C124.798 26.906 124.728 26.8627 124.676 26.776C124.642 26.6893 124.616 26.5593 124.598 26.386C124.442 25.138 124.364 24.0027 124.364 22.98L124.39 21.576C124.425 20.952 124.442 20.3713 124.442 19.834V19.132C124.442 18.5947 124.139 18.274 123.532 18.17C123.238 18.17 122.986 18.3 122.778 18.56C122.432 18.9413 122.232 19.3833 122.18 19.886C121.972 20.9433 121.868 22.0093 121.868 23.084C121.868 23.6213 121.894 24.1587 121.946 24.696C121.981 25.5973 122.215 26.4293 122.648 27.192C123.099 27.9547 123.68 28.336 124.39 28.336H124.598ZM123.662 16.272C123.974 16.272 124.226 16.1767 124.416 15.986C124.607 15.7953 124.711 15.544 124.728 15.232C124.728 14.92 124.624 14.6687 124.416 14.478C124.208 14.27 123.94 14.166 123.61 14.166C123.281 14.166 123.012 14.2613 122.804 14.452C122.614 14.6427 122.51 14.894 122.492 15.206C122.51 15.518 122.622 15.778 122.83 15.986C123.056 16.1767 123.333 16.272 123.662 16.272ZM134.312 29.454C134.867 29.454 135.43 29.116 136.002 28.44C136.557 27.5907 137.034 26.6893 137.432 25.736C137.727 24.9733 137.9 24.4447 137.952 24.15C137.952 23.9767 137.866 23.838 137.692 23.734C137.606 23.6993 137.536 23.682 137.484 23.682C137.311 23.682 137.172 23.7687 137.068 23.942C136.982 24.046 136.756 24.514 136.392 25.346C135.976 26.2473 135.734 26.7933 135.664 26.984C135.526 27.3133 135.37 27.634 135.196 27.946C135.023 28.1713 134.841 28.284 134.65 28.284C134.425 28.284 134.278 28.1193 134.208 27.79C133.931 27.0273 133.792 25.8313 133.792 24.202C133.792 22.3647 133.94 20.5447 134.234 18.742L134.338 17.936C134.546 16.584 134.659 15.388 134.676 14.348C134.676 13.5853 134.312 13.1347 133.584 12.996H133.48C132.874 12.996 132.458 13.3773 132.232 14.14C131.903 15.9773 131.738 17.832 131.738 19.704C131.738 20.12 131.695 20.5533 131.608 21.004C131.14 20.6227 130.62 20.432 130.048 20.432C128.974 20.5187 128.185 21.0127 127.682 21.914C127.041 23.0753 126.72 24.306 126.72 25.606L126.746 25.918C126.764 26.4727 126.902 26.9927 127.162 27.478C127.596 28.1887 128.142 28.544 128.8 28.544C129.182 28.544 129.572 28.414 129.97 28.154C130.438 27.8073 130.811 27.3653 131.088 26.828L131.66 25.554H131.738C131.738 26.438 131.964 27.3047 132.414 28.154C132.934 29.0207 133.567 29.454 134.312 29.454ZM129.424 26.49C129.286 26.022 129.216 25.5627 129.216 25.112C129.216 24.3493 129.398 23.6213 129.762 22.928C129.832 22.772 129.918 22.694 130.022 22.694C130.109 22.694 130.204 22.7547 130.308 22.876C130.412 22.98 130.49 23.1187 130.542 23.292C130.594 23.448 130.62 23.63 130.62 23.838C130.62 24.306 130.508 24.7913 130.282 25.294C130.074 25.7967 129.788 26.1953 129.424 26.49Z" fill="#EA9ED7"/>
</svg>
